# xmcd CD database file
#
# Track frame offsets:
#	150
#	24000
#	39790
#	68601
#	82286
#	108053
#	128501
#	149395
#	161594
#	189715
#	219595
#
# Disc length: 3193 seconds
#
# Revision: 0
# Processed by: cddbd v1.5.1PL0 Copyright (c) Steve Scherf et al.
# Submitted via: CDex 1.51
#
DISCID=890c770b
DTITLE=Project Mirage - Mirage 〜夜奏幻樂団 Disc2
DYEAR=2005
DGENRE=Game
TTITLE0=水無瀬いつき - In the name of Alice
TTITLE1=YDK - 夜奏
TTITLE2=ripple - プレインエイジア -Galaxy Mix-
TTITLE3=Sakino - PhantomFantasy -Heaven's Mix-
TTITLE4=gp-ln - Trancing Girl 〜図書館のメロディー
TTITLE5=米※ - ****ingで瀟洒の旅
TTITLE6=Sinon - 賢しき東方の智　〜 Chronicle
TTITLE7=のくの - ブラド・ツェペシュの呪い
TTITLE8=SHI - 上海紅茶館 〜 Asian Arrange
TTITLE9=青汁 - ピアノ協奏曲「レミリア」
TTITLE10=MKT - Girl's fantasia
EXTD=YEAR: 2005
EXTT0=
EXTT1=
EXTT2=
EXTT3=
EXTT4=
EXTT5=
EXTT6=
EXTT7=
EXTT8=
EXTT9=
EXTT10=
PLAYORDER=
